<?xml version="1.0" encoding="UTF-8" standalone="no"?><!DOCTYPE svg PUBLIC "-//W3C//DTD SVG 1.1//EN" "http://www.w3.org/Graphics/SVG/1.1/DTD/svg11.dtd"><svg width="300" height="37" viewBox="0 0 300 37" version="1.1" xmlns="http://www.w3.org/2000/svg" xmlns:xlink="http://www.w3.org/1999/xlink" xml:space="preserve" xmlns:serif="http://www.serif.com/" style="fill-rule:evenodd;clip-rule:evenodd;stroke-linejoin:round;stroke-miterlimit:2;"><rect x="0" y="0" width="299.888" height="36.872" style="fill:none;"/><g><path d="M18.567,8.173c1.293,-0 2.556,0.256 3.766,0.761c-0.66,0.656 -1.499,1.483 -2.516,2.481c-1.306,1.279 -2.661,2.622 -4.068,4.029l-6.279,6.28c-0.484,-1.167 -0.729,-2.396 -0.729,-3.664c0,-2.712 0.983,-5.07 2.921,-7.009c1.55,-1.551 3.377,-2.484 5.43,-2.772c0.496,-0.071 0.992,-0.106 1.475,-0.106Zm32.33,1.396l-3.91,-4.896c-0.089,-0.111 -0.221,-0.18 -0.363,-0.187c-0.145,-0.012 -0.28,0.044 -0.381,0.144l-18.165,18.077l-2.397,2.363c-1.553,1.552 -3.381,2.498 -5.437,2.812c-1.826,0.278 -3.579,0.073 -5.236,-0.619l18.59,-18.59c0.094,-0.093 0.146,-0.22 0.146,-0.353c0,-0.133 -0.052,-0.26 -0.146,-0.354l-2.378,-2.377c-1.727,-1.728 -3.707,-3.042 -5.884,-3.908c-4.341,-1.726 -8.992,-1.725 -13.331,-0c-2.177,0.866 -4.155,2.18 -5.882,3.908c-1.73,1.73 -3.033,3.698 -3.87,5.847c-0.838,2.145 -1.262,4.374 -1.262,6.624c0,2.252 0.424,4.493 1.261,6.661c0.837,2.176 2.14,4.157 3.871,5.888c1.675,1.676 3.614,2.977 5.761,3.866c2.146,0.891 4.429,1.342 6.787,1.342c2.357,-0 4.64,-0.451 6.788,-1.342c2.146,-0.889 4.084,-2.19 5.761,-3.866l2.386,-2.385l17.262,-17.997c0.172,-0.181 0.185,-0.463 0.029,-0.658Z" style="fill:#f15a29;fill-rule:nonzero;"/><path d="M76.104,2.739c0.041,-0.206 -0.013,-0.419 -0.146,-0.581c-0.132,-0.162 -0.331,-0.256 -0.541,-0.256l-20.784,-0c-7.276,-0 -11.703,3.692 -13.157,10.976l-2.078,10.402c-0.242,1.187 -0.366,2.305 -0.366,3.32c0,3.613 1.625,7.92 9.367,7.92l20.783,-0c0.334,-0 0.621,-0.236 0.686,-0.563l1.248,-6.236c0.041,-0.205 -0.013,-0.419 -0.146,-0.581c-0.133,-0.162 -0.331,-0.256 -0.541,-0.256l-19.911,-0c-3.101,-0 -3.498,-1.498 -3.498,-2.803c0,-0.405 0.057,-0.866 0.17,-1.368l1.746,-8.726c0.603,-3.036 2.293,-4.45 5.316,-4.45l19.919,-0c0.334,-0 0.621,-0.236 0.687,-0.563l1.246,-6.235Z" style="fill:#fff;fill-rule:nonzero;"/><path d="M113.389,2.156c-0.133,-0.161 -0.331,-0.254 -0.54,-0.254l-0.004,-0l-6.26,0.042c-0.331,0.002 -0.616,0.236 -0.682,0.562l-2.394,11.887l-17.205,-0l2.308,-11.655c0.041,-0.206 -0.013,-0.419 -0.146,-0.581c-0.133,-0.161 -0.332,-0.255 -0.541,-0.255l-6.252,-0c-0.334,-0 -0.621,0.235 -0.686,0.563l-6.235,31.217c-0.041,0.206 0.013,0.419 0.146,0.581c0.133,0.163 0.331,0.257 0.541,0.257l6.252,-0c0.334,-0 0.621,-0.236 0.686,-0.563l2.383,-11.928l17.224,-0l-2.308,11.654c-0.041,0.206 0.013,0.419 0.146,0.581c0.132,0.162 0.332,0.256 0.541,0.256l6.252,-0c0.334,-0 0.621,-0.236 0.687,-0.563l6.234,-31.218c0.041,-0.207 -0.013,-0.42 -0.147,-0.583Z" style="fill:#fff;fill-rule:nonzero;"/><path d="M150.282,1.902l-31.196,-0c-0.334,-0 -0.621,0.235 -0.687,0.563l-1.247,6.235c-0.041,0.205 0.012,0.419 0.146,0.581c0.132,0.162 0.331,0.256 0.541,0.256l31.196,-0c0.334,-0 0.621,-0.236 0.686,-0.563l1.248,-6.235c0.041,-0.206 -0.012,-0.419 -0.146,-0.581c-0.133,-0.162 -0.331,-0.256 -0.541,-0.256Z" style="fill:#fff;fill-rule:nonzero;"/><path d="M145.294,26.884l-31.197,-0c-0.334,-0 -0.621,0.236 -0.686,0.563l-1.247,6.235c-0.041,0.206 0.012,0.419 0.145,0.581c0.133,0.163 0.331,0.257 0.541,0.257l31.176,-0c0.333,-0 0.62,-0.235 0.686,-0.561l1.267,-6.235c0.042,-0.206 -0.01,-0.42 -0.143,-0.583c-0.133,-0.162 -0.332,-0.257 -0.542,-0.257Z" style="fill:#fff;fill-rule:nonzero;"/><path d="M147.788,14.393l-31.196,-0c-0.334,-0 -0.622,0.236 -0.687,0.563l-1.247,6.235c-0.041,0.206 0.012,0.419 0.146,0.581c0.132,0.162 0.331,0.257 0.541,0.257l31.175,-0c0.333,-0 0.62,-0.235 0.686,-0.561l1.267,-6.235c0.042,-0.207 -0.01,-0.42 -0.143,-0.583c-0.133,-0.162 -0.332,-0.257 -0.542,-0.257Z" style="fill:#fff;fill-rule:nonzero;"/><path d="M188.337,2.739c0.041,-0.206 -0.013,-0.419 -0.146,-0.581c-0.133,-0.162 -0.331,-0.256 -0.541,-0.256l-20.784,-0c-7.277,-0 -11.703,3.692 -13.156,10.976l-2.078,10.402c-0.244,1.185 -0.368,2.303 -0.368,3.32c0,3.613 1.625,7.92 9.368,7.92l20.783,-0c0.334,-0 0.621,-0.236 0.686,-0.563l1.247,-6.236c0.041,-0.205 -0.012,-0.419 -0.145,-0.581c-0.133,-0.162 -0.331,-0.256 -0.541,-0.256l-19.91,-0c-3.102,-0 -3.499,-1.498 -3.499,-2.803c0,-0.405 0.057,-0.866 0.17,-1.368l1.746,-8.726c0.603,-3.036 2.293,-4.45 5.316,-4.45l19.919,-0c0.334,-0 0.621,-0.236 0.687,-0.563l1.246,-6.235Z" style="fill:#fff;fill-rule:nonzero;"/><path d="M206.345,18.306l19.171,-15.155c0.234,-0.185 0.325,-0.498 0.227,-0.779c-0.098,-0.282 -0.363,-0.47 -0.661,-0.47l-9.346,-0c-0.149,-0 -0.296,0.048 -0.416,0.137l-16.82,12.439l2.345,-11.739c0.041,-0.206 -0.013,-0.419 -0.146,-0.581c-0.133,-0.162 -0.331,-0.256 -0.541,-0.256l-6.252,-0c-0.334,-0 -0.621,0.235 -0.686,0.563l-6.235,31.217c-0.041,0.206 0.013,0.419 0.146,0.581c0.132,0.163 0.331,0.257 0.541,0.257l6.252,-0c0.334,-0 0.621,-0.236 0.686,-0.563l2.436,-12.195l11.948,12.54c0.132,0.139 0.315,0.218 0.507,0.218l9.346,-0c0.275,-0 0.523,-0.161 0.637,-0.41c0.114,-0.249 0.072,-0.542 -0.107,-0.749l-13.032,-15.055Z" style="fill:#fff;fill-rule:nonzero;"/><path d="M260.019,14.393l-31.195,-0c-0.334,-0 -0.621,0.236 -0.687,0.563l-1.247,6.235c-0.041,0.206 0.012,0.419 0.146,0.581c0.133,0.162 0.331,0.257 0.541,0.257l31.176,-0c0.333,-0 0.619,-0.235 0.684,-0.561l1.269,-6.235c0.041,-0.207 -0.011,-0.42 -0.144,-0.583c-0.134,-0.162 -0.332,-0.257 -0.543,-0.257Z" style="fill:#fff;fill-rule:nonzero;"/><path d="M263.201,2.739c0.041,-0.206 -0.012,-0.419 -0.146,-0.581c-0.132,-0.162 -0.331,-0.256 -0.541,-0.256l-31.196,-0c-0.334,-0 -0.621,0.235 -0.686,0.563l-1.247,6.235c-0.041,0.205 0.011,0.419 0.145,0.581c0.133,0.162 0.331,0.256 0.541,0.256l31.196,-0c0.333,-0 0.621,-0.236 0.687,-0.563l1.247,-6.235Z" style="fill:#fff;fill-rule:nonzero;"/><path d="M257.526,26.884l-31.196,-0c-0.334,-0 -0.621,0.236 -0.687,0.563l-1.247,6.235c-0.041,0.206 0.012,0.419 0.146,0.581c0.133,0.163 0.331,0.257 0.541,0.257l31.176,-0c0.333,-0 0.62,-0.235 0.685,-0.561l1.268,-6.235c0.042,-0.206 -0.012,-0.42 -0.144,-0.583c-0.133,-0.162 -0.332,-0.257 -0.542,-0.257Z" style="fill:#fff;fill-rule:nonzero;"/><path d="M285.99,14.393l-12.634,-0l0.954,-4.856l12.92,-0c3.93,-0 3.93,1.341 3.93,1.782c0,0.166 -0.017,0.339 -0.05,0.516c-0.125,0.628 -0.51,2.558 -5.12,2.558Zm12.73,-2.291c0.202,-0.994 0.304,-1.93 0.304,-2.78c0,-3.385 -1.65,-7.42 -9.512,-7.42l-20.785,-0c-0.334,-0 -0.621,0.235 -0.686,0.563l-6.235,31.217c-0.042,0.206 0.013,0.419 0.146,0.581c0.133,0.163 0.331,0.257 0.541,0.257l6.252,-0c0.334,-0 0.621,-0.236 0.686,-0.563l2.383,-11.928l2.229,-0l11.847,12.277c0.132,0.136 0.315,0.214 0.504,0.214l9.329,-0c0.281,-0 0.535,-0.168 0.645,-0.427c0.109,-0.258 0.055,-0.557 -0.141,-0.759l-10.884,-11.306l0.429,0.001c7.276,-0 11.632,-3.34 12.948,-9.927Z" style="fill:#fff;fill-rule:nonzero;"/></g></svg>
